<?xml version="1.0" encoding="UTF-8"?>
<svg id="Layer_1" data-name="Layer 1" xmlns="http://www.w3.org/2000/svg" viewBox="0 0 1921.39 1921.39">
  <defs>
    <style>
      .cls-1 {
        stroke-width: 0px;
      }
    </style>
  </defs>
  <path class="cls-1" d="m2.35,1226.6c1.86-2.8,2.92-4.58,4.15-6.23,57.99-78.08,116.18-156,173.94-234.25,69.16-93.71,136.67-188.59,201.59-285.29,2.78-4.15,5.6-6.01,10.74-5.82,28.56,1.02,57.13,1.69,85.7,2.45,69.51,1.87,139.02,3.72,208.54,5.59,4.69.13,9.39.61,14.07.42,4.21-.17,6.46,1.45,8.4,5.21,9.28,18.01,18.92,35.83,28.38,53.74,27.98,52.99,56.19,105.86,83.77,159.06,12.52,24.16,28.75,45.86,43.26,68.7,5.94,9.36,12.19,18.53,18.32,27.77.69,1.04,1.49,2.01,2.69,3.62.92-1.59,1.73-2.69,2.24-3.91,19.14-45.91,41.76-90.14,64.26-134.44,21.73-42.77,43.15-85.71,64.69-128.58,7.95-15.81,15.87-31.63,24-47.85,2.04-.09,4.11-.25,6.18-.27,77.22-.9,154.44-1.45,231.65-2.78,58.44-1,116.85-3.08,175.28-4.51,40.51-.99,81.03-2.3,121.55-2.33,38.84-.03,77.58,2.96,116.03,8.65,41.24,6.1,81.78,15.09,120.17,31.96,18.64,8.19,36.2,18.2,51.57,31.72,16.06,14.13,28.3,30.85,33.26,51.97,7.63,32.41-.7,60.78-22.91,85.23-13.95,15.36-30.91,26.75-49.22,36.22-28.97,14.98-59.74,24.97-91.29,32.78-2.83.7-5.64,1.44-8.46,2.17-.04.47-.07.95-.11,1.42,1.41.51,2.77,1.21,4.22,1.51,19.44,4.02,38.66,8.86,57.3,15.77,15.85,5.88,30.98,13.2,44.99,22.75,25.27,17.23,41,41.06,49.14,70.3,5.46,19.62,7.82,39.71,10.06,59.86,1.44,12.92,3.39,25.78,5.19,38.65.29,2.1.95,4.16,1.58,6.19,3.38,10.95,9.04,19.82,21.45,22.49v8.14c-2.19,0-4.06.04-5.93,0-47.12-1.26-94.25-2.48-141.37-3.81-49.89-1.42-99.78-3.02-149.68-4.34-5.79-.15-9.97-2.74-12.92-6.99-3-4.32-5.97-9.08-7.26-14.08-3.14-12.15-5.35-24.54-7.86-36.85-3.15-15.45-5.47-31.11-9.51-46.32-5.17-19.48-14.63-36.85-30.24-50.24-14.69-12.59-32.28-18.79-50.87-22.61-16.99-3.49-34.21-4.86-51.51-4.95-42.24-.22-84.48-.23-126.71-.3-1.86,0-3.72.23-6.4.4.54,58.29,1.08,116.23,1.63,175.02-87.67-.87-174.96-1.74-262.98-2.61v-65.09c-3.05,1.88-3.79,4.12-4.84,5.98-10.22,17.98-20.49,35.93-30.46,54.05-2.12,3.85-4.45,5.31-8.92,5.33-93.86.44-187.72,1.02-281.58,1.74-4.35.03-6.41-1.55-8.4-5.12-11.97-21.41-24.26-42.63-36.21-64.05-1.94-3.47-4.11-4.64-8.01-4.59-55.67.82-111.34,1.45-167.02,2.22-46.5.64-93,1.4-139.5,2.11-1.71.03-3.43.23-5.12.08-3.63-.32-5.75,1.29-7.72,4.35-10.38,16.14-21,32.13-31.56,48.16-4.81,7.3-9.79,14.5-14.44,21.9-1.89,3.01-4,4.31-7.69,4.4-51.6,1.28-103.2,2.71-154.8,4.15-47.12,1.31-94.25,2.66-141.37,3.99-1.89.05-3.79,0-7.12,0Zm1316.39-297.25c3.07,0,5.17,0,7.27,0,25.37-.1,50.74.06,76.11-.35,32.6-.53,65.22-1.06,97.8-2.45,18.56-.79,36.79-4.5,54.28-11.14,10.07-3.82,19.36-8.92,26.92-16.76,15.07-15.63,14.92-39.28-.34-54.67-6.73-6.78-14.92-11.27-23.75-14.68-21.61-8.34-44.27-11.28-67.13-11.16-55.21.29-110.42,1.44-165.63,2.27-1.23.02-2.45.28-4.41.52-.37,35.97-.73,71.68-1.11,108.41Zm-889.19,104.67c7.6,1.32,190.62.33,194.59-.89-4.15-10.2-92.79-157.87-97.43-162-26.89,57.37-64.06,108.48-97.17,162.89Z"/>
</svg>